# xmcd
#
# Track frame offsets:
#       183
#       13383
#       24195
#       34595
#       44320
#       57095
#       71995
#       88095
#       99820
#       116020
#       132570
#       148870
#       163733
#       180958
#
# Disc length: 2615 seconds
#
# Revision: 1
# Processed by: cddbd v1.4PL0 Copyright (c) Steve Scherf et al.
# Submitted via: MusiCat 1.1
#
DISCID=bd0a350e
DTITLE=Vari - Cocktail italiano vol. 7
DYEAR=1900
DGENRE=
TTITLE0=Ridera'-Little Tony
TTITLE1=Sognando la California-Dik Dik
TTITLE2=24.000 baci-Adriano Celentano
TTITLE3=Lasciati baciare con il letkiss-I Giganti
TTITLE4=Nata per me-Adriano Celentano
TTITLE5=L'aurora-Le Orme
TTITLE6=Senza catene (unchained melody)-Iva Zanicchi
TTITLE7=Amore fermati-Fred Bongusto
TTITLE8=Due ragazzi nel sole-Collage
TTITLE9=Ho capito che ti amo-Wilma Goich
TTITLE10=Chitarra suona piu' piano-Nicola di Bari
TTITLE11=Ti voglio-Donatello
TTITLE12=Mi sono innamorato di mia moglie-Gianni Nazzaro
TTITLE13=La tua immagine-Dino
EXTD=0\n\n\n
EXTT0=
EXTT1=
EXTT2=
EXTT3=
EXTT4=
EXTT5=
EXTT6=
EXTT7=
EXTT8=
EXTT9=
EXTT10=
EXTT11=
EXTT12=
EXTT13=
PLAYORDER=
